<?xml version="1.0" encoding="UTF-8"?>
<svg version="1.1" xmlns="http://www.w3.org/2000/svg" width="500" height="500">
<path d="M0 0 C3.33333333 0 6.66666667 0 10 0 C10.78375 -0.02320313 11.5675 -0.04640625 12.375 -0.0703125 C13.24125 -0.08835938 14.1075 -0.10640625 15 -0.125 C15.86625 -0.14820313 16.7325 -0.17140625 17.625 -0.1953125 C20 0 20 0 23 2 C23 2.66 23 3.32 23 4 C23.66 4 24.32 4 25 4 C27.09740836 7.14611253 27.25328219 7.91188078 27.1875 11.5 C27.18105469 12.2734375 27.17460937 13.046875 27.16796875 13.84375 C27 16 27 16 26 19 C26.33 19.33 26.66 19.66 27 20 C27.04092937 22.33297433 27.04241723 24.66705225 27 27 C24.5 28.4375 24.5 28.4375 21 29 C18.67287887 27.43982086 16.80755723 25.68253773 14.83203125 23.69921875 C13.00866346 21.77328702 13.00866346 21.77328702 10 21 C8.65863633 21.65035814 7.32467746 22.3162955 6 23 C5.34 22.67 4.68 22.34 4 22 C4 22.99 4 23.98 4 25 C3.34 25 2.68 25 2 25 C2.16757812 25.83144531 2.33515625 26.66289062 2.5078125 27.51953125 C2.71148437 28.60621094 2.91515625 29.69289062 3.125 30.8125 C3.33382812 31.89144531 3.54265625 32.97039062 3.7578125 34.08203125 C4 37 4 37 2 40 C0.35 40 -1.3 40 -3 40 C-3 52.21 -3 64.42 -3 77 C1.62 77 6.24 77 11 77 C15 80 15 80 15.64453125 82.2265625 C15.69996094 83.01804687 15.75539063 83.80953125 15.8125 84.625 C15.91498047 85.81996094 15.91498047 85.81996094 16.01953125 87.0390625 C16 89 16 89 15 90 C13.43452952 90.09326716 11.86487228 90.11745582 10.29663086 90.11352539 C9.29566879 90.11344986 8.29470673 90.11337433 7.26341248 90.11329651 C6.1748848 90.10813522 5.08635712 90.10297394 3.96484375 90.09765625 C2.85645645 90.0962413 1.74806915 90.09482635 0.60609436 90.09336853 C-2.95013069 90.08775033 -6.50629383 90.07519475 -10.0625 90.0625 C-12.46679597 90.05748734 -14.87109292 90.05292403 -17.27539062 90.04882812 C-23.18361504 90.03777499 -29.0918031 90.02101917 -35 90 C-35.50320881 88.72126205 -36.00054315 87.44021125 -36.49536133 86.15820312 C-36.77293777 85.44506958 -37.05051422 84.73193604 -37.33650208 83.99719238 C-38.53156647 80.39993395 -37.71646213 77.64744359 -37 74 C-36.34 74 -35.68 74 -35 74 C-35.33 73.01 -35.66 72.02 -36 71 C-35.0625 68.8125 -35.0625 68.8125 -34 67 C-33.34 67 -32.68 67 -32 67 C-31.01 62.05 -30.02 57.1 -29 52 C-24 51 -24 51 -22 52 C-21.67 49.36 -21.34 46.72 -21 44 C-21.99 44 -22.98 44 -24 44 C-24.66 45.32 -25.32 46.64 -26 48 C-27.32 47.67 -28.64 47.34 -30 47 C-29.25 43.625 -29.25 43.625 -28 40 C-27.34257812 39.70738281 -26.68515625 39.41476563 -26.0078125 39.11328125 C-23.74290519 38.1456179 -23.74290519 38.1456179 -23.1015625 35.50390625 C-22.86566406 34.04791016 -22.86566406 34.04791016 -22.625 32.5625 C-22.45226562 31.59441406 -22.27953125 30.62632812 -22.1015625 29.62890625 C-21.733578 26.76435839 -21.733578 26.76435839 -24 24 C-26.01361424 22.77386541 -26.01361424 22.77386541 -28.3125 21.6875 C-33.63955135 18.83555772 -36.49129428 15.81167885 -39.375 10.4375 C-40.12180575 7.52495757 -39.99472876 5.83115108 -39 3 C-36 1 -36 1 -33.5625 0.875 C-30.50581931 2.21695737 -30.51238559 2.72740489 -29.3125 5.6875 C-26.9032062 11.2823036 -22.24363983 13.35816619 -17 16 C-16.96261719 15.31292969 -16.92523438 14.62585938 -16.88671875 13.91796875 C-16.82097656 13.01691406 -16.75523437 12.11585938 -16.6875 11.1875 C-16.62949219 10.29417969 -16.57148438 9.40085938 -16.51171875 8.48046875 C-15.92803813 5.6511772 -15.31691307 4.68402708 -13 3 C-8.92205575 2.57521414 -7.46923881 2.68717413 -4 5 C-3.26953125 7.6015625 -3.26953125 7.6015625 -2.8125 10.625 C-2.65394531 11.62789062 -2.49539063 12.63078125 -2.33203125 13.6640625 C-2.22246094 14.43492187 -2.11289062 15.20578125 -2 16 C-0.35 15.01 1.3 14.02 3 13 C2.62746094 12.54109375 2.25492187 12.0821875 1.87109375 11.609375 C1.39800781 10.99578125 0.92492187 10.3821875 0.4375 9.75 C-0.03816406 9.14671875 -0.51382813 8.5434375 -1.00390625 7.921875 C-2 6 -2 6 -1.71484375 3.890625 C-1 2 -1 2 0 0 Z M-17 49 C-17.33 50.65 -17.66 52.3 -18 54 C-17.34 54 -16.68 54 -16 54 C-16 52.35 -16 50.7 -16 49 C-16.33 49 -16.66 49 -17 49 Z M-17 63 C-20.384568 67.37173367 -20.66328485 71.67061191 -21 77 C-19.35 77 -17.7 77 -16 77 C-16 72.38 -16 67.76 -16 63 C-16.33 63 -16.66 63 -17 63 Z " fill="#0A0101" transform="translate(388,205)"/>
<path d="M0 0 C4.29 0 8.58 0 13 0 C13.48210937 1.31355469 13.96421875 2.62710938 14.4609375 3.98046875 C15.09892113 5.71615951 15.73694403 7.45183583 16.375 9.1875 C16.69210937 10.05181641 17.00921875 10.91613281 17.3359375 11.80664062 C18.83904037 15.89320154 20.34815448 19.97049805 22 24 C23.79003911 21.31494133 24.82112709 19.105065 25.9453125 16.11328125 C26.47705078 14.7065918 26.47705078 14.7065918 27.01953125 13.27148438 C27.38433594 12.29501953 27.74914062 11.31855469 28.125 10.3125 C28.49753906 9.32443359 28.87007813 8.33636719 29.25390625 7.31835938 C30.17264271 4.88017415 31.08676425 2.44025088 32 0 C36.29 0 40.58 0 45 0 C44.67 1.32 44.34 2.64 44 4 C43.01 4 42.02 4 41 4 C41 14.56 41 25.12 41 36 C42.32 36 43.64 36 45 36 C45 37.32 45 38.64 45 40 C39.72 40 34.44 40 29 40 C29 38.68 29 37.36 29 36 C30.32 36 31.64 36 33 36 C32.67 29.73 32.34 23.46 32 17 C31.030625 19.2275 30.06125 21.455 29.0625 23.75 C28.75836182 24.44448242 28.45422363 25.13896484 28.14086914 25.85449219 C26.84015631 28.86703523 25.64331153 31.77529915 25 35 C22.69 35 20.38 35 18 35 C17.22099321 33.52512154 16.45232941 32.04478001 15.6875 30.5625 C15.04361328 29.32693359 15.04361328 29.32693359 14.38671875 28.06640625 C12.62326033 24.16692778 11.35335575 20.06006726 10 16 C9.67 22.6 9.34 29.2 9 36 C10.32 36 11.64 36 13 36 C13 37.32 13 38.64 13 40 C11.20909747 40.19466332 9.41723495 40.38051213 7.625 40.5625 C6.12839844 40.71912109 6.12839844 40.71912109 4.6015625 40.87890625 C2 41 2 41 0 40 C0 38.68 0 37.36 0 36 C1.32 36 2.64 36 4 36 C4 25.44 4 14.88 4 4 C2.68 4 1.36 4 0 4 C0 2.68 0 1.36 0 0 Z " fill="#222222" transform="translate(263,232)"/>
<path d="M0 0 C0.33 0 0.66 0 1 0 C1 1.98 1 3.96 1 6 C3.31 6.33 5.62 6.66 8 7 C8 12.28 8 17.56 8 23 C7.01 23 6.02 23 5 23 C5.33 24.32 5.66 25.64 6 27 C6.66 27 7.32 27 8 27 C8 33.27 8 39.54 8 46 C4.535 46.495 4.535 46.495 1 47 C2.37720215 47.02187378 2.37720215 47.02187378 3.78222656 47.04418945 C7.19687909 47.10533515 10.61073672 47.17950217 14.02490234 47.26245117 C15.50103138 47.29565355 16.97728594 47.32370017 18.45361328 47.34643555 C20.57899332 47.38006951 22.70322804 47.43238519 24.828125 47.48828125 C26.1059082 47.51446533 27.38369141 47.54064941 28.70019531 47.56762695 C32.15011467 48.01966951 33.67609019 48.42709985 36 51 C36 52.32 36 53.64 36 55 C22.47 55 8.94 55 -5 55 C-5 53 -5 53 -3.5 51.375 C-3.005 50.92125 -2.51 50.4675 -2 50 C-5.94139078 51.66751148 -8.7892812 54.22710649 -12 57 C-13.97869441 54.03195838 -14.34161439 52.90215354 -14.6875 49.5 C-14.77386719 48.7265625 -14.86023438 47.953125 -14.94921875 47.15625 C-15 45 -15 45 -14 42 C-13.34 42 -12.68 42 -12 42 C-12.495 40.515 -12.495 40.515 -13 39 C-12.0625 36.8125 -12.0625 36.8125 -11 35 C-10.34 35 -9.68 35 -9 35 C-8.01 30.05 -7.02 25.1 -6 20 C-1 19 -1 19 1 20 C1.33 17.36 1.66 14.72 2 12 C1.01 12 0.02 12 -1 12 C-1.66 13.32 -2.32 14.64 -3 16 C-4.32 15.67 -5.64 15.34 -7 15 C-6.25 11.625 -6.25 11.625 -5 8 C-3.67479497 7.31731862 -2.34187818 6.6492959 -1 6 C-0.18415432 2.94091587 -0.18415432 2.94091587 0 0 Z M6 17 C5.67 18.65 5.34 20.3 5 22 C5.66 22 6.32 22 7 22 C7 20.35 7 18.7 7 17 C6.67 17 6.34 17 6 17 Z M6 31 C2.615432 35.37173367 2.33671515 39.67061191 2 45 C3.65 45 5.3 45 7 45 C7 40.38 7 35.76 7 31 C6.67 31 6.34 31 6 31 Z " fill="#4E4D4E" transform="translate(365,237)"/>
<path d="M0 0 C3.33333333 0 6.66666667 0 10 0 C10.78375 -0.02320313 11.5675 -0.04640625 12.375 -0.0703125 C13.24125 -0.08835938 14.1075 -0.10640625 15 -0.125 C15.86625 -0.14820313 16.7325 -0.17140625 17.625 -0.1953125 C20 0 20 0 23 2 C23 2.66 23 3.32 23 4 C23.66 4 24.32 4 25 4 C27.09740836 7.14611253 27.25328219 7.91188078 27.1875 11.5 C27.18105469 12.2734375 27.17460937 13.046875 27.16796875 13.84375 C27 16 27 16 26 19 C26.33 19.33 26.66 19.66 27 20 C27.04092937 22.33297433 27.04241723 24.66705225 27 27 C24.5 28.4375 24.5 28.4375 21 29 C18.67287887 27.43982086 16.80755723 25.68253773 14.83203125 23.69921875 C13.00866346 21.77328702 13.00866346 21.77328702 10 21 C8.65863633 21.65035814 7.32467746 22.3162955 6 23 C5.34 22.67 4.68 22.34 4 22 C4 22.99 4 23.98 4 25 C3.34 25 2.68 25 2 25 C2.16757812 25.83144531 2.33515625 26.66289062 2.5078125 27.51953125 C2.71148437 28.60621094 2.91515625 29.69289062 3.125 30.8125 C3.33382813 31.89144531 3.54265625 32.97039062 3.7578125 34.08203125 C4 37 4 37 2 40 C0.35 40 -1.3 40 -3 40 C-3 52.21 -3 64.42 -3 77 C1.62 77 6.24 77 11 77 C11 77.33 11 77.66 11 78 C6.05 78 1.1 78 -4 78 C-4 65.13 -4 52.26 -4 39 C-3.01 38.505 -3.01 38.505 -2 38 C-2.32597168 37.29786377 -2.65194336 36.59572754 -2.98779297 35.87231445 C-4.09717843 32.72423922 -4.22944395 30.37078493 -4.1953125 27.04296875 C-4.18886719 25.93115234 -4.18242187 24.81933594 -4.17578125 23.67382812 C-4.15902344 22.52333984 -4.14226562 21.37285156 -4.125 20.1875 C-4.11597656 19.01767578 -4.10695313 17.84785156 -4.09765625 16.64257812 C-4.07413732 13.76150947 -4.04126852 10.88086011 -4 8 C-3.67 8 -3.34 8 -3 8 C-2.67 10.64 -2.34 13.28 -2 16 C-0.35 15.01 1.3 14.02 3 13 C2.62746094 12.54109375 2.25492187 12.0821875 1.87109375 11.609375 C1.39800781 10.99578125 0.92492187 10.3821875 0.4375 9.75 C-0.03816406 9.14671875 -0.51382812 8.5434375 -1.00390625 7.921875 C-2 6 -2 6 -1.71484375 3.890625 C-1 2 -1 2 0 0 Z " fill="#393939" transform="translate(388,205)"/>
<path d="M0 0 C3.56234428 -0.08741124 7.12441108 -0.14052896 10.6875 -0.1875 C11.69490234 -0.21263672 12.70230469 -0.23777344 13.74023438 -0.26367188 C23.06317935 -0.35597826 23.06317935 -0.35597826 27 3 C29.8531088 6.44340717 30.56303918 9.53750835 30.4453125 14.01953125 C29.91166618 16.39285303 29.04662034 17.38487063 27.375 19.125 C26.59125 20.07375 25.8075 21.0225 25 22 C25.29695572 25.06334746 25.29695572 25.06334746 27 28 C27.29777344 28.62648438 27.59554687 29.25296875 27.90234375 29.8984375 C29.79341001 33.70601222 29.79341001 33.70601222 33.25 35.9375 C33.8275 35.958125 34.405 35.97875 35 36 C35 37.32 35 38.64 35 40 C31.2289107 40.47551389 27.75404991 40.67869829 24 40 C21.44484652 37.7495896 20.32737444 35.09372312 19 32 C18.23363119 30.49771412 17.4630308 28.99757671 16.6875 27.5 C16.130625 26.345 15.57375 25.19 15 24 C14.34 24 13.68 24 13 24 C12.67 27.96 12.34 31.92 12 36 C13.32 36 14.64 36 16 36 C16 37.32 16 38.64 16 40 C11.05 40 6.1 40 1 40 C1 38.68 1 37.36 1 36 C1.99 36 2.98 36 4 36 C4 25.44 4 14.88 4 4 C2.68 3.67 1.36 3.34 0 3 C0 2.01 0 1.02 0 0 Z M13 4 C11.63467451 5.13701597 11.63467451 5.13701597 11.90234375 8.16015625 C11.91394531 9.44792969 11.92554688 10.73570312 11.9375 12.0625 C11.94652344 13.35285156 11.95554688 14.64320313 11.96484375 15.97265625 C11.97644531 16.97167969 11.98804688 17.97070312 12 19 C16.65052872 19.26932521 16.65052872 19.26932521 21 18 C22.49084832 13.52745503 22.49084832 9.47254497 21 5 C17.00967159 4.39735687 17.00967159 4.39735687 13 4 Z " fill="#1F1F1F" transform="translate(128,232)"/>
<path d="M0 0 C3.35386761 -0.1171893 6.70720149 -0.18757584 10.0625 -0.25 C11.00544922 -0.28351563 11.94839844 -0.31703125 12.91992188 -0.3515625 C19.20702845 -0.43918768 22.88330426 0.27319232 28 4 C33.23246789 10.80220825 32.64772165 19.8109477 32 28 C30.75796122 32.88585134 29.09332692 35.19151352 25.03125 38.1953125 C20.22515363 40.80245519 15.39704422 40.43960786 10.0625 40.25 C9.09248047 40.23195313 8.12246094 40.21390625 7.12304688 40.1953125 C4.74765106 40.14850667 2.37436156 40.08296385 0 40 C0 38.68 0 37.36 0 36 C1.32 36 2.64 36 4 36 C3.67 35.34 3.34 34.68 3 34 C2.91426606 31.74879258 2.89287812 29.49500697 2.90234375 27.2421875 C2.90446617 26.24761032 2.90446617 26.24761032 2.90663147 25.23294067 C2.91223246 23.11358137 2.924785 20.99432741 2.9375 18.875 C2.94251488 17.43880361 2.94707781 16.00260556 2.95117188 14.56640625 C2.96220218 11.04423655 2.97946741 7.52212855 3 4 C2.01 4 1.02 4 0 4 C0 2.68 0 1.36 0 0 Z M11 4 C11 14.56 11 25.12 11 36 C18.32786 36.68114135 18.32786 36.68114135 21.4453125 34.546875 C23.70422746 30.84634095 23.74947573 27.51782507 23.875 23.25 C23.94460937 22.08984375 23.94460937 22.08984375 24.015625 20.90625 C24.24884909 15.56003621 23.61762905 11.10830226 22 6 C18.62022705 2.99575738 15.81004058 4 11 4 Z " fill="#1F1F1F" transform="translate(91,232)"/>
<path d="M0 0 C9.24 0 18.48 0 28 0 C28 3.63 28 7.26 28 11 C26.68 10.67 25.36 10.34 24 10 C22.75 7.4375 22.75 7.4375 22 5 C18.7 5 15.4 5 12 5 C12 9.29 12 13.58 12 18 C14.31 18 16.62 18 19 18 C19.66 16.02 20.32 14.04 21 12 C21.99 12 22.98 12 24 12 C25.30267176 17.50016964 24.71033431 22.47032059 24 28 C23.01 28 22.02 28 21 28 C20.34 26.02 19.68 24.04 19 22 C16.69 22 14.38 22 12 22 C12 26.62 12 31.24 12 36 C15.63 36 19.26 36 23 36 C23.66 33.69 24.32 31.38 25 29 C26.32 29 27.64 29 29 29 C29 32.63 29 36.26 29 40 C19.43 40 9.86 40 0 40 C0 38.68 0 37.36 0 36 C1.32 36 2.64 36 4 36 C3.67 25.77 3.34 15.54 3 5 C2.01 4.67 1.02 4.34 0 4 C0 2.68 0 1.36 0 0 Z " fill="#202020" transform="translate(165,232)"/>
<path d="M0 0 C9.24 0 18.48 0 28 0 C28 3.63 28 7.26 28 11 C26.68 11 25.36 11 24 11 C23.690625 10.030625 23.38125 9.06125 23.0625 8.0625 C21.37918483 4.85054552 21.37918483 4.85054552 18.796875 4.37890625 C16.52061916 4.14627004 14.28756601 4.00959147 12 4 C12.01160156 4.67546875 12.02320313 5.3509375 12.03515625 6.046875 C12.04869141 7.38492188 12.04869141 7.38492188 12.0625 8.75 C12.07410156 9.63171875 12.08570313 10.5134375 12.09765625 11.421875 C12.00826198 13.7818838 11.66912821 15.74498524 11 18 C13.64 18 16.28 18 19 18 C19.33 16.02 19.66 14.04 20 12 C21.32 12 22.64 12 24 12 C24 16.95 24 21.9 24 27 C22.68 27 21.36 27 20 27 C19.505 24.525 19.505 24.525 19 22 C16.69 22.33 14.38 22.66 12 23 C12.01160156 23.77085937 12.02320313 24.54171875 12.03515625 25.3359375 C12.04869141 26.84027344 12.04869141 26.84027344 12.0625 28.375 C12.07410156 29.37273437 12.08570313 30.37046875 12.09765625 31.3984375 C12 34 12 34 11 36 C14.96 36 18.92 36 23 36 C23.33 33.69 23.66 31.38 24 29 C25.65 29 27.3 29 29 29 C29 32.63 29 36.26 29 40 C19.43 40 9.86 40 0 40 C0 38.68 0 37.36 0 36 C1.32 36 2.64 36 4 36 C3.67 25.77 3.34 15.54 3 5 C2.01 4.67 1.02 4.34 0 4 C0 2.68 0 1.36 0 0 Z " fill="#232323" transform="translate(313,232)"/>
<path d="M0 0 C3.214197 1.63631847 5.24693202 2.97308912 7.375 5.875 C8.19529575 8.66400556 8.19262159 11.11067608 8 14 C7 15 7 15 3.9375 15.0625 C2.968125 15.041875 1.99875 15.02125 1 15 C0.87625 13.88625 0.7525 12.7725 0.625 11.625 C0.3534187 7.96896323 0.3534187 7.96896323 -2 6 C-4.68839385 5.73008094 -7.29141936 5.91262643 -10 6 C-10 8.97 -10 11.94 -10 15 C-8.68 15.226875 -7.36 15.45375 -6 15.6875 C0.21566111 17.06221178 5.42751228 19.64126841 9 25 C9.265625 27.375 9.265625 27.375 9.25 30 C9.25515625 30.86625 9.2603125 31.7325 9.265625 32.625 C9 35 9 35 7 38 C6.34 38 5.68 38 5 38 C5 38.66 5 39.32 5 40 C-1.27988827 42.8094237 -7.59449251 42.13516916 -14 40 C-14 39.34 -14 38.68 -14 38 C-14.66 38 -15.32 38 -16 38 C-18.29013653 34.5647952 -18.17842973 33.014669 -18 29 C-16.02 28.67 -14.04 28.34 -12 28 C-11.71125 29.134375 -11.4225 30.26875 -11.125 31.4375 C-10.75375 32.613125 -10.3825 33.78875 -10 35 C-7.01405576 36.49297212 -4.29146376 36.11755228 -1 36 C-0.01 35.505 -0.01 35.505 1 35 C1 32.69 1 30.38 1 28 C-0.010625 27.566875 -1.02125 27.13375 -2.0625 26.6875 C-2.69929687 26.41035156 -3.33609375 26.13320313 -3.9921875 25.84765625 C-5.86961744 25.05504478 -7.7780419 24.33700133 -9.6875 23.625 C-13.86692842 21.57471436 -15.93882216 19.12235569 -18 15 C-18.23553948 10.76028942 -18.32845886 7.63821698 -16 4 C-15.34 4 -14.68 4 -14 4 C-14 3.34 -14 2.68 -14 2 C-9.44490728 -0.3510156 -5.01677971 -0.72425341 0 0 Z " fill="#2A2A2A" transform="translate(249,231)"/>
<path d="M0 0 C3.27060012 1.63530006 5.22381741 2.9415692 7.375 5.875 C8.19529575 8.66400556 8.19262159 11.11067608 8 14 C7 15 7 15 3.9375 15.0625 C2.968125 15.041875 1.99875 15.02125 1 15 C0.80083984 14.15115234 0.80083984 14.15115234 0.59765625 13.28515625 C0.42105469 12.55167969 0.24445313 11.81820312 0.0625 11.0625 C-0.11152344 10.33160156 -0.28554687 9.60070312 -0.46484375 8.84765625 C-0.83887569 7.00030102 -0.83887569 7.00030102 -2 6 C-4.67058851 5.85884839 -7.32432238 5.95752893 -10 6 C-10 8.97 -10 11.94 -10 15 C-9.34773437 15.18175781 -8.69546875 15.36351562 -8.0234375 15.55078125 C4.32577607 19.10254622 4.32577607 19.10254622 7.875 23.125 C9.41698873 27.06563786 9.60362041 30.81385326 9 35 C8.34 35.99 7.68 36.98 7 38 C6.34 38 5.68 38 5 38 C5 38.66 5 39.32 5 40 C-0.52747653 42.76373827 -5.7062197 42.6553658 -11.5 41 C-12.325 40.67 -13.15 40.34 -14 40 C-14 39.34 -14 38.68 -14 38 C-14.66 38 -15.32 38 -16 38 C-18.29013653 34.5647952 -18.17842973 33.014669 -18 29 C-16.35 28.67 -14.7 28.34 -13 28 C-11.68 30.64 -10.36 33.28 -9 36 C-3.75892679 36.43080161 -3.75892679 36.43080161 1.0625 34.875 C2.46771358 32.06457284 1.72549141 29.96791942 1 27 C0.33613281 26.81824219 -0.32773438 26.63648438 -1.01171875 26.44921875 C-7.13650018 24.70566783 -12.77945446 23.06465464 -17 18 C-18.41933513 13.74199462 -18.72651677 9.77088462 -17 5.5625 C-16.67 5.046875 -16.34 4.53125 -16 4 C-15.34 4 -14.68 4 -14 4 C-14 3.34 -14 2.68 -14 2 C-9.43351548 -0.63046344 -5.1539188 -0.66659518 0 0 Z " fill="#292929" transform="translate(217,231)"/>
<path d="M0 0 C0 6.27 0 12.54 0 19 C-2.31 19.33 -4.62 19.66 -7 20 C-6.08186523 20.01458252 -5.16373047 20.02916504 -4.21777344 20.04418945 C-0.80312091 20.10533515 2.61073672 20.17950217 6.02490234 20.26245117 C7.50103138 20.29565355 8.97728594 20.32370017 10.45361328 20.34643555 C12.57899332 20.38006951 14.70322804 20.43238519 16.828125 20.48828125 C18.1059082 20.51446533 19.38369141 20.54064941 20.70019531 20.56762695 C24.15011467 21.01966951 25.67609019 21.42709985 28 24 C28 25.32 28 26.64 28 28 C14.47 28 0.94 28 -13 28 C-13 26 -13 26 -11.5 24.375 C-10.7575 23.694375 -10.7575 23.694375 -10 23 C-10.33 22.01 -10.66 21.02 -11 20 C-10.67 19.01 -10.34 18.02 -10 17 C-10.05512547 15.37379871 -10.14143705 13.74850963 -10.25 12.125 C-10.30248328 8.12460775 -10.24060128 7.31213139 -7.6875 4 C-2.3125 0 -2.3125 0 0 0 Z M-2 4 C-5.384568 8.37173367 -5.66328485 12.67061191 -6 18 C-4.35 18 -2.7 18 -1 18 C-1 13.38 -1 8.76 -1 4 C-1.33 4 -1.66 4 -2 4 Z " fill="#353535" transform="translate(373,264)"/>
<path d="M0 0 C4.29 0 8.58 0 13 0 C12.67 1.32 12.34 2.64 12 4 C11.01 4 10.02 4 9 4 C9 14.56 9 25.12 9 36 C9.99 36 10.98 36 12 36 C12 36.99 12 37.98 12 39 C8.37 39 4.74 39 1 39 C1.00785522 37.69796631 1.00785522 37.69796631 1.01586914 36.36962891 C1.03289862 33.15299727 1.04544408 29.93638859 1.05493164 26.71972656 C1.0599643 25.32681523 1.06679098 23.9339092 1.07543945 22.54101562 C1.08755152 20.54038754 1.09270412 18.53972112 1.09765625 16.5390625 C1.10289307 15.33459473 1.10812988 14.13012695 1.11352539 12.88916016 C1.20087891 10.0586323 1.20087891 10.0586323 0 8 C-0.99 8.495 -0.99 8.495 -2 9 C-1.34 6.03 -0.68 3.06 0 0 Z " fill="#1A1A1A" transform="translate(295,232)"/>
<path d="M0 0 C0.99 0.33 1.98 0.66 3 1 C2.67 1.66 2.34 2.32 2 3 C1.67 3 1.34 3 1 3 C0.67 26.43 0.34 49.86 0 74 C-1.32 74 -2.64 74 -4 74 C-4.02314035 64.90767909 -4.04092375 55.81536827 -4.05181217 46.72302437 C-4.05703728 42.50137418 -4.06412822 38.27974409 -4.07543945 34.05810547 C-4.0862815 29.98623328 -4.09227964 25.91438047 -4.09487724 21.84249496 C-4.09672911 20.28671844 -4.10034518 18.73094302 -4.10573006 17.17517471 C-4.11295795 15.00103693 -4.1139902 12.82697984 -4.11352539 10.65283203 C-4.115746 9.41373077 -4.11796661 8.17462952 -4.12025452 6.89797974 C-4 4 -4 4 -3 2 C-2.01 2 -1.02 2 0 2 C0 1.34 0 0.68 0 0 Z " fill="#E1A85E" transform="translate(381,209)"/>
<path d="M0 0 C2.63498233 0.36344584 3.77531654 0.75957785 5.6171875 2.73046875 C7.24906674 5.40877903 7.37349346 6.95183367 7.3125 10.0625 C7.30863281 10.91972656 7.30476563 11.77695312 7.30078125 12.66015625 C7 15 7 15 5 18 C4.34 18 3.68 18 3 18 C3 18.66 3 19.32 3 20 C-3.27988827 22.8094237 -9.59449251 22.13516916 -16 20 C-16 19.34 -16 18.68 -16 18 C-16.66 18 -17.32 18 -18 18 C-20.29013653 14.5647952 -20.17842973 13.014669 -20 9 C-18.02 8.67 -16.04 8.34 -14 8 C-13.71125 9.134375 -13.4225 10.26875 -13.125 11.4375 C-12.75375 12.613125 -12.3825 13.78875 -12 15 C-9.01405576 16.49297212 -6.29146376 16.11755228 -3 16 C-2.34 15.67 -1.68 15.34 -1 15 C-0.53477707 10.20691658 -0.53477707 10.20691658 -2.5 6.0625 C-2.995 5.711875 -3.49 5.36125 -4 5 C-2.68 3.35 -1.36 1.7 0 0 Z " fill="#303030" transform="translate(251,251)"/>
<path d="M0 0 C0.33 0 0.66 0 1 0 C1.33 2.64 1.66 5.28 2 8 C2.99 8 3.98 8 5 8 C4.34 8.66 3.68 9.32 3 10 C3.9075 9.690625 4.815 9.38125 5.75 9.0625 C8.16563338 8.2727737 10.52780285 7.57050703 13 7 C12.34 8.32 11.68 9.64 11 11 C10.34 11 9.68 11 9 11 C9.33 11.99 9.66 12.98 10 14 C9.34 14 8.68 14 8 14 C8 14.99 8 15.98 8 17 C7.34 17 6.68 17 6 17 C6.16757812 17.83144531 6.33515625 18.66289062 6.5078125 19.51953125 C6.71148437 20.60621094 6.91515625 21.69289062 7.125 22.8125 C7.33382813 23.89144531 7.54265625 24.97039062 7.7578125 26.08203125 C8 29 8 29 6 32 C4.35 32 2.7 32 1 32 C1 44.21 1 56.42 1 69 C5.62 69 10.24 69 15 69 C15 69.33 15 69.66 15 70 C10.05 70 5.1 70 0 70 C0 57.13 0 44.26 0 31 C0.66 30.67 1.32 30.34 2 30 C1.67402832 29.29786377 1.34805664 28.59572754 1.01220703 27.87231445 C-0.09717843 24.72423922 -0.22944395 22.37078493 -0.1953125 19.04296875 C-0.18886719 17.93115234 -0.18242187 16.81933594 -0.17578125 15.67382812 C-0.15902344 14.52333984 -0.14226562 13.37285156 -0.125 12.1875 C-0.11597656 11.01767578 -0.10695313 9.84785156 -0.09765625 8.64257812 C-0.07413732 5.76150947 -0.04126852 2.88086011 0 0 Z " fill="#888179" transform="translate(384,213)"/>
<path d="M0 0 C1.94921875 0.71484375 1.94921875 0.71484375 4 2 C4.64453125 4.12890625 4.64453125 4.12890625 4.8125 6.5625 C4.91498047 7.77099609 4.91498047 7.77099609 5.01953125 9.00390625 C5 11 5 11 4 12 C2.43452952 12.09326716 0.86487228 12.11745582 -0.70336914 12.11352539 C-1.70433121 12.11344986 -2.70529327 12.11337433 -3.73658752 12.11329651 C-4.8251152 12.10813522 -5.91364288 12.10297394 -7.03515625 12.09765625 C-8.14354355 12.0962413 -9.25193085 12.09482635 -10.39390564 12.09336853 C-13.95013069 12.08775033 -17.50629383 12.07519475 -21.0625 12.0625 C-23.46679597 12.05748734 -25.87109292 12.05292403 -28.27539062 12.04882812 C-34.18361504 12.03777499 -40.0918031 12.02101917 -46 12 C-44.92834431 8.78503292 -44.11623226 7.91537488 -41.625 5.75 C-41.01914062 5.20859375 -40.41328125 4.6671875 -39.7890625 4.109375 C-39.19867188 3.74328125 -38.60828125 3.3771875 -38 3 C-37.01 3.33 -36.02 3.66 -35 4 C-35.99 5.485 -35.99 5.485 -37 7 C-37.66 7 -38.32 7 -39 7 C-39 7.66 -39 8.32 -39 9 C-25.47 9 -11.94 9 2 9 C0.45957252 4.19695965 0.45957252 4.19695965 -2 2 C-1.34 2 -0.68 2 0 2 C0 1.34 0 0.68 0 0 Z " fill="#373332" transform="translate(399,283)"/>
<path d="M0 0 C3.05668069 1.34195737 3.05011441 1.85240489 4.25 4.8125 C6.6592938 10.4073036 11.31886017 12.48316619 16.5625 15.125 C15.5725 15.785 14.5825 16.445 13.5625 17.125 C14.201875 17.90875 14.84125 18.6925 15.5 19.5 C18.7081434 23.5830916 18.92177721 25.91548046 18.5625 31.125 C17.046875 33.3515625 17.046875 33.3515625 15.5625 35.125 C15.61792969 34.3515625 15.67335938 33.578125 15.73046875 32.78125 C15.75205055 29.29363089 15.54231679 26.48200943 14.5625 23.125 C12.05505368 20.58734348 9.46017443 18.889142 6.4375 17.00390625 C1.59060885 13.83630483 -2.58815989 9.67302032 -4.4375 4.125 C-5.0975 5.115 -5.7575 6.105 -6.4375 7.125 C-6.125 4.75 -6.125 4.75 -5.4375 2.125 C-2.4375 0.125 -2.4375 0.125 0 0 Z " fill="#3B342D" transform="translate(354.4375,205.875)"/>
<path d="M0 0 C0.33 0 0.66 0 1 0 C1 1.98 1 3.96 1 6 C3.31 6.33 5.62 6.66 8 7 C8 12.28 8 17.56 8 23 C7.01 23 6.02 23 5 23 C5.12375 24.11375 5.12375 24.11375 5.25 25.25 C5 28 5 28 3.25 30.3125 C1 32 1 32 -3 32 C-3 29.03 -3 26.06 -3 23 C-0.69 23.33 1.62 23.66 4 24 C3.67 22.68 3.34 21.36 3 20 C2.34 20 1.68 20 1 20 C1.33 17.36 1.66 14.72 2 12 C1.01 12 0.02 12 -1 12 C-1.66 13.32 -2.32 14.64 -3 16 C-4.32 15.67 -5.64 15.34 -7 15 C-6.25 11.625 -6.25 11.625 -5 8 C-3.67479497 7.31731862 -2.34187818 6.6492959 -1 6 C-0.18415432 2.94091587 -0.18415432 2.94091587 0 0 Z M6 17 C5.67 18.65 5.34 20.3 5 22 C5.66 22 6.32 22 7 22 C7 20.35 7 18.7 7 17 C6.67 17 6.34 17 6 17 Z " fill="#424241" transform="translate(365,237)"/>
<path d="M0 0 C0 0.99 0 1.98 0 3 C-0.99 3 -1.98 3 -3 3 C-3.33 26.76 -3.66 50.52 -4 75 C-4.66 75 -5.32 75 -6 75 C-6.33 51.9 -6.66 28.8 -7 5 C-7.33 8.63 -7.66 12.26 -8 16 C-8.66 16 -9.32 16 -10 16 C-9.91291962 13.89505699 -9.80474307 11.79097858 -9.6875 9.6875 C-9.62949219 8.51574219 -9.57148438 7.34398437 -9.51171875 6.13671875 C-9 3 -9 3 -7.65625 1.09375 C-5.15286069 -0.55943162 -2.91602466 -0.19440164 0 0 Z " fill="#795428" transform="translate(381,208)"/>
<path d="M0 0 C10.23 0 20.46 0 31 0 C31.495 2.475 31.495 2.475 32 5 C21.11 5 10.22 5 -1 5 C-0.67 3.35 -0.34 1.7 0 0 Z " fill="#F9B862" transform="translate(368,286)"/>
<path d="M0 0 C1.60379341 -0.05416188 3.20811406 -0.09286638 4.8125 -0.125 C5.70582031 -0.14820313 6.59914063 -0.17140625 7.51953125 -0.1953125 C10 0 10 0 13 2 C13 2.66 13 3.32 13 4 C13.66 4 14.32 4 15 4 C17.13586678 7.20380017 17.23132175 8.01939967 17.125 11.6875 C17.10695313 12.49574219 17.08890625 13.30398437 17.0703125 14.13671875 C17.04710937 14.75160156 17.02390625 15.36648437 17 16 C16.34 15.34 15.68 14.68 15 14 C13.02 14.99 13.02 14.99 11 16 C7.7 12.7 4.4 9.4 1 6 C1.33 5.01 1.66 4.02 2 3 C2.99 2.67 3.98 2.34 5 2 C3.02 2 1.04 2 -1 2 C-0.67 1.34 -0.34 0.68 0 0 Z " fill="#3C3C3C" transform="translate(398,205)"/>
<path d="M0 0 C0.66 0.33 1.32 0.66 2 1 C2.67192387 11.0188648 3.15723924 20.95415947 3 31 C3.66 31.33 4.32 31.66 5 32 C3.515 32.495 3.515 32.495 2 33 C2 33.99 2 34.98 2 36 C1.34 36 0.68 36 0 36 C0 47.88 0 59.76 0 72 C-0.33 72 -0.66 72 -1 72 C-1.02312524 62.76002448 -1.04091601 53.52005886 -1.05181217 44.28006077 C-1.05704061 39.99000085 -1.06413753 35.69996067 -1.07543945 31.40991211 C-1.08626975 27.273206 -1.09227714 23.13651892 -1.09487724 18.99979973 C-1.09673124 17.41807696 -1.10035136 15.83635529 -1.10573006 14.25464058 C-1.1129424 12.04677162 -1.11399086 9.83898227 -1.11352539 7.63110352 C-1.115746 6.37201675 -1.11796661 5.11292999 -1.12025452 3.81568909 C-1 1 -1 1 0 0 Z " fill="#210E00" transform="translate(382,211)"/>
<path d="M0 0 C3.91979579 -0.29035524 7.23159332 -0.00490845 11 1 C12.66623639 1.03786901 14.33397597 1.04627845 16 1 C15.67 1.66 15.34 2.32 15 3 C14.01 3.33 13.02 3.66 12 4 C13.40844718 7.21524305 15.10344786 9.32183868 17.625 11.75 C18.25664062 12.36359375 18.88828125 12.9771875 19.5390625 13.609375 C20.02117187 14.06828125 20.50328125 14.5271875 21 15 C22.65 14.34 24.3 13.68 26 13 C26 16.3 26 19.6 26 23 C22.38880865 21.19440433 20.71598323 19.9348737 17.99609375 17.12109375 C17.25552734 16.36505859 16.51496094 15.60902344 15.75195312 14.83007812 C14.98818359 14.04052734 14.22441406 13.25097656 13.4375 12.4375 C11.92008241 10.86911961 10.39814432 9.30509655 8.87109375 7.74609375 C8.20005615 7.05185303 7.52901855 6.3576123 6.83764648 5.64233398 C4.99670999 3.77868644 4.99670999 3.77868644 2 3 C2.66 4.65 3.32 6.3 4 8 C2.35 7.67 0.7 7.34 -1 7 C-1.625 5.1875 -1.625 5.1875 -2 3 C-1.34 2.01 -0.68 1.02 0 0 Z " fill="#141413" transform="translate(388,205)"/>
<path d="M0 0 C0.25652344 0.56976563 0.51304687 1.13953125 0.77734375 1.7265625 C4.93382435 9.4552261 11.67660787 14.51302014 19 19 C20.87824891 20.87824891 20.39102397 24.03935276 20.5625 26.5625 C20.68818359 28.35880859 20.68818359 28.35880859 20.81640625 30.19140625 C20.87699219 31.11824219 20.93757813 32.04507813 21 33 C19.515 32.505 19.515 32.505 18 32 C16.83224932 29.14549834 16.05305763 26.59201142 15.77734375 23.515625 C14.68033735 19.96551383 12.87716187 19.29128031 9.6875 17.5 C4.86772141 14.77158061 1.51350094 12.02700188 -1 7 C-1.125 3.9375 -1.125 3.9375 -1 1 C-0.67 0.67 -0.34 0.34 0 0 Z " fill="#43372E" transform="translate(350,209)"/>
<path d="M0 0 C3.85186528 0.56168504 5.62091364 2.24662505 8.328125 4.96484375 C9.12734375 5.76470703 9.9265625 6.56457031 10.75 7.38867188 C11.575 8.22978516 12.4 9.07089844 13.25 9.9375 C14.51070313 11.19336914 14.51070313 11.19336914 15.796875 12.47460938 C22 18.73311942 22 18.73311942 22 21 C16.9829458 20.63445871 14.56592051 18.01457943 11.3125 14.5 C8.01591084 10.79387845 8.01591084 10.79387845 4 8 C3.67 8.99 3.34 9.98 3 11 C0.24616077 9.62308038 -0.51483101 7.63279958 -2 5 C-1.01 4.67 -0.02 4.34 1 4 C0.67 2.68 0.34 1.36 0 0 Z " fill="#444343" transform="translate(390,208)"/>
<path d="M0 0 C1.23556641 0.01740234 1.23556641 0.01740234 2.49609375 0.03515625 C3.32238281 0.04417969 4.14867187 0.05320313 5 0.0625 C5.63808594 0.07410156 6.27617187 0.08570313 6.93359375 0.09765625 C6.93359375 1.74765625 6.93359375 3.39765625 6.93359375 5.09765625 C4.62359375 4.76765625 2.31359375 4.43765625 -0.06640625 4.09765625 C-0.06640625 7.06765625 -0.06640625 10.03765625 -0.06640625 13.09765625 C0.59359375 13.09765625 1.25359375 13.09765625 1.93359375 13.09765625 C1.93359375 13.75765625 1.93359375 14.41765625 1.93359375 15.09765625 C0.28802809 16.13201181 -1.38346705 17.12529138 -3.06640625 18.09765625 C-4.75117969 19.40803559 -6.42289168 20.73588703 -8.06640625 22.09765625 C-8.72640625 21.43765625 -9.38640625 20.77765625 -10.06640625 20.09765625 C-9.40640625 18.77765625 -8.74640625 17.45765625 -8.06640625 16.09765625 C-7.40640625 16.09765625 -6.74640625 16.09765625 -6.06640625 16.09765625 C-5.86144531 15.02644531 -5.65648437 13.95523437 -5.4453125 12.8515625 C-5.17337916 11.45438774 -4.90123273 10.05725444 -4.62890625 8.66015625 C-4.49419922 7.95310547 -4.35949219 7.24605469 -4.22070312 6.51757812 C-2.96966665 0.14034341 -2.96966665 0.14034341 0 0 Z " fill="#3D3D3D" transform="translate(362.06640625,255.90234375)"/>
<path d="M0 0 C0.7031987 0.00707474 1.4063974 0.01414948 2.13090515 0.0214386 C4.36312102 0.04928913 6.59276952 0.11199805 8.82421875 0.17578125 C10.34306256 0.20087674 11.86194595 0.22368773 13.38085938 0.24414062 C17.09197123 0.29908118 20.80159416 0.38528386 24.51171875 0.48828125 C24.51171875 0.81828125 24.51171875 1.14828125 24.51171875 1.48828125 C14.94171875 1.81828125 5.37171875 2.14828125 -4.48828125 2.48828125 C-4.81828125 3.80828125 -5.14828125 5.12828125 -5.48828125 6.48828125 C5.40171875 6.48828125 16.29171875 6.48828125 27.51171875 6.48828125 C27.84171875 5.49828125 28.17171875 4.50828125 28.51171875 3.48828125 C28.51171875 4.80828125 28.51171875 6.12828125 28.51171875 7.48828125 C14.98171875 7.48828125 1.45171875 7.48828125 -12.48828125 7.48828125 C-12.48828125 5.48828125 -12.48828125 5.48828125 -10.45629883 2.89379883 C-6.69708283 -0.1529689 -4.78761302 -0.09537078 0 0 Z " fill="#936C3A" transform="translate(372.48828125,284.51171875)"/>
<path d="M0 0 C0.33 0 0.66 0 1 0 C1.33 2.64 1.66 5.28 2 8 C2.99 8 3.98 8 5 8 C4.34 8.66 3.68 9.32 3 10 C3.9075 9.690625 4.815 9.38125 5.75 9.0625 C8.16563338 8.2727737 10.52780285 7.57050703 13 7 C12.34 8.32 11.68 9.64 11 11 C10.34 11 9.68 11 9 11 C9.33 11.99 9.66 12.98 10 14 C9.34 14 8.68 14 8 14 C7.67 14.99 7.34 15.98 7 17 C7 16.01 7 15.02 7 14 C6.01 14 5.02 14 4 14 C4 18.62 4 23.24 4 28 C3.34 28 2.68 28 2 28 C0.53948097 18.57182803 -0.29032827 9.56470344 0 0 Z " fill="#C19861" transform="translate(384,213)"/>
<path d="M0 0 C0.66 0 1.32 0 2 0 C2.350625 1.051875 2.70125 2.10375 3.0625 3.1875 C5.35486827 8.56533078 9.79854399 10.79920581 14.75 13.5 C17.57744702 15.38496468 18.65275934 16.88007426 20 20 C20.63904494 26.07092697 20.63904494 26.07092697 18.4765625 29.21484375 C17.98929687 29.80394531 17.50203125 30.39304688 17 31 C17.05542969 30.2265625 17.11085938 29.453125 17.16796875 28.65625 C17.22340173 21.98244225 17.22340173 21.98244225 13.66015625 16.59765625 C10.83084076 14.61903427 7.95025296 12.79197441 5 11 C2.8785661 9.40104239 1.63387908 8.140945 0 6 C-0.3125 2.6875 -0.3125 2.6875 0 0 Z " fill="#CDA062" transform="translate(353,210)"/>
<path d="M0 0 C0.33 0 0.66 0 1 0 C1 1.98 1 3.96 1 6 C3.31 6.33 5.62 6.66 8 7 C8 8.32 8 9.64 8 11 C7.01 11.33 6.02 11.66 5 12 C4.01 13.485 4.01 13.485 3 15 C2.67 14.01 2.34 13.02 2 12 C1.01 12 0.02 12 -1 12 C-1.66 13.32 -2.32 14.64 -3 16 C-4.32 15.67 -5.64 15.34 -7 15 C-6.25 11.625 -6.25 11.625 -5 8 C-3.67479497 7.31731862 -2.34187818 6.6492959 -1 6 C-0.18415432 2.94091587 -0.18415432 2.94091587 0 0 Z " fill="#464648" transform="translate(365,237)"/>
<path d="M0 0 C0.99 0.33 1.98 0.66 3 1 C3.31100973 6.18349543 2.99283581 9.66554814 0 14 C-2.61328125 14.6640625 -2.61328125 14.6640625 -5 15 C-4.74322411 13.24788218 -4.46897047 11.49832064 -4.1875 9.75 C-4.03667969 8.77546875 -3.88585937 7.8009375 -3.73046875 6.796875 C-2.96781736 3.87677662 -1.96225899 2.25794185 0 0 Z " fill="#58595B" transform="translate(361,273)"/>
<path d="M0 0 C4.24822374 0.47202486 6.19989709 2.96655518 9 6 C10.65 5.34 12.3 4.68 14 4 C14 7.3 14 10.6 14 14 C10.02825487 12.01412744 7.84992392 10.11805213 4.75 7 C3.85796875 6.113125 2.9659375 5.22625 2.046875 4.3125 C0 2 0 2 0 0 Z " fill="#0F0F0F" transform="translate(400,214)"/>
<path d="M0 0 C0.33 0 0.66 0 1 0 C1 9.24 1 18.48 1 28 C4.3 28.33 7.6 28.66 11 29 C11.33 28.01 11.66 27.02 12 26 C12 27.32 12 28.64 12 30 C6.72 30 1.44 30 -4 30 C-4 28.68 -4 27.36 -4 26 C-2.68 26 -1.36 26 0 26 C-0.03552979 25.31897217 -0.07105957 24.63794434 -0.10766602 23.9362793 C-0.26517792 20.85362135 -0.41393888 17.77060171 -0.5625 14.6875 C-0.61857422 13.61564453 -0.67464844 12.54378906 -0.73242188 11.43945312 C-0.80493164 9.89741211 -0.80493164 9.89741211 -0.87890625 8.32421875 C-0.94960327 6.9024231 -0.94960327 6.9024231 -1.02172852 5.4519043 C-1 3 -1 3 0 0 Z " fill="#707070" transform="translate(296,242)"/>
<path d="M0 0 C2.54278024 0.34361895 4.49485673 0.65028543 6.625 2.125 C8.64868162 4.88456585 8.52020669 7.30817515 8.6875 10.6875 C8.78611328 12.45673828 8.78611328 12.45673828 8.88671875 14.26171875 C8.92410156 15.16535156 8.96148437 16.06898438 9 17 C8.01 16.67 7.02 16.34 6 16 C3.9996123 11.44356134 3.50688546 6.8998928 3 2 C2.01 2 1.02 2 0 2 C0 1.34 0 0.68 0 0 Z " fill="#33251A" transform="translate(362,225)"/>
<path d="M0 0 C0.99 0 1.98 0 3 0 C4.36623674 2.73247348 4.128426 4.98198902 4 8 C3 9 3 9 -0.0625 9.0625 C-1.031875 9.041875 -2.00125 9.02125 -3 9 C-3 6.69 -3 4.38 -3 2 C-2.34 2 -1.68 2 -1 2 C-0.67 1.34 -0.34 0.68 0 0 Z " fill="#1A1A1A" transform="translate(253,237)"/>
<path d="M0 0 C2.375 -0.125 2.375 -0.125 5 0 C7 2 7 2 7.1953125 3.9453125 C7.13020833 5.96354167 7.06510417 7.98177083 7 10 C3.64084842 8.56036361 1.28375062 6.87583411 -1 4 C-0.75 1.75 -0.75 1.75 0 0 Z " fill="#585A5A" transform="translate(404,211)"/>
<path d="M0 0 C3.36720387 1.39332574 4.9859524 2.9789286 7 6 C6.67 6.66 6.34 7.32 6 8 C4.35 8 2.7 8 1 8 C1.66 6.68 2.32 5.36 3 4 C2.45730469 4.30035156 1.91460937 4.60070312 1.35546875 4.91015625 C0.64003906 5.29042969 -0.07539063 5.67070312 -0.8125 6.0625 C-1.52019531 6.44535156 -2.22789062 6.82820312 -2.95703125 7.22265625 C-5 8 -5 8 -8 7 C-5.63707344 4.47411298 -4.33537489 3.11179163 -1 2 C-0.67 1.34 -0.34 0.68 0 0 Z " fill="#0F0806" transform="translate(394,216)"/>
<path d="M0 0 C4.75 0.875 4.75 0.875 7 2 C6.25 6.75 6.25 6.75 4 9 C2.68 9 1.36 9 0 9 C0 6.03 0 3.06 0 0 Z " fill="#575757" transform="translate(362,260)"/>
<path d="M0 0 C0.33 1.32 0.66 2.64 1 4 C1.66 4 2.32 4 3 4 C3 4.66 3 5.32 3 6 C1.35443434 7.03435556 -0.3170608 8.02763513 -2 9 C-3.68477344 10.31037934 -5.35648543 11.63823078 -7 13 C-7.66 12.34 -8.32 11.68 -9 11 C-7.496 7.24 -7.496 7.24 -5.0625 6.0625 C-2.28055457 4.6293766 -1.43061498 2.71816847 0 0 Z " fill="#1B1B1A" transform="translate(361,265)"/>
<path d="M0 0 C3.29680965 0.65784963 5.84117922 1.89420573 8.75 3.5625 C9.94882812 4.24505859 9.94882812 4.24505859 11.171875 4.94140625 C11.77515625 5.29074219 12.3784375 5.64007813 13 6 C9.3125 8.0859375 9.3125 8.0859375 6.5 7.3125 C4.07172023 6.03765312 2.01411633 4.86492252 0 3 C0 2.01 0 1.02 0 0 Z " fill="#3F382F" transform="translate(358,215)"/>
<path d="M0 0 C0.66 0 1.32 0 2 0 C2.33 4.29 2.66 8.58 3 13 C2.01 13.33 1.02 13.66 0 14 C-1.29243536 9.8803623 -2.26252625 6.33168317 -2 2 C-1.34 2 -0.68 2 0 2 C0 1.34 0 0.68 0 0 Z " fill="#353535" transform="translate(352,280)"/>
<path d="M0 0 C0 0.99 0 1.98 0 3 C-2.31 3.66 -4.62 4.32 -7 5 C-7.33 8.63 -7.66 12.26 -8 16 C-8.66 16 -9.32 16 -10 16 C-9.91291962 13.89505699 -9.80474307 11.79097858 -9.6875 9.6875 C-9.62949219 8.51574219 -9.57148438 7.34398437 -9.51171875 6.13671875 C-9 3 -9 3 -7.65625 1.09375 C-5.15286069 -0.55943162 -2.91602466 -0.19440164 0 0 Z " fill="#494647" transform="translate(381,208)"/>
<path d="M0 0 C4.90733591 4.74903475 4.90733591 4.74903475 5.25 9.375 C4.98334526 13.24149377 4.38645457 14.1488148 2 17 C1.92652344 15.75283203 1.92652344 15.75283203 1.8515625 14.48046875 C1.77679688 13.39378906 1.70203125 12.30710938 1.625 11.1875 C1.55539062 10.10855469 1.48578125 9.02960938 1.4140625 7.91796875 C1.18804267 4.81373814 1.18804267 4.81373814 -1 2 C-0.67 1.34 -0.34 0.68 0 0 Z " fill="#B78C57" transform="translate(368,224)"/>
<path d="M0 0 C0.33 0 0.66 0 1 0 C1 3.96 1 7.92 1 12 C-0.98 12.99 -0.98 12.99 -3 14 C-2.7525 13.2575 -2.7525 13.2575 -2.5 12.5 C-1.79311182 8.96555911 -1.93994845 5.60309299 -2 2 C-1.34 2 -0.68 2 0 2 C0 1.34 0 0.68 0 0 Z " fill="#190802" transform="translate(374,227)"/>
<path d="M0 0 C1.953125 0.7109375 1.953125 0.7109375 4 2 C4.609375 4.1640625 4.609375 4.1640625 4.75 6.625 C4.80671875 7.44226563 4.8634375 8.25953125 4.921875 9.1015625 C4.94765625 9.72804688 4.9734375 10.35453125 5 11 C2.69032126 8.79101571 1.39073319 6.87418193 0 4 C-0.66 3.34 -1.32 2.68 -2 2 C-1.34 2 -0.68 2 0 2 C0 1.34 0 0.68 0 0 Z " fill="#39322E" transform="translate(399,283)"/>
<path d="M0 0 C0.78375 0.04125 1.5675 0.0825 2.375 0.125 C1.385 0.455 0.395 0.785 -0.625 1.125 C0.035 3.105 0.695 5.085 1.375 7.125 C-0.275 6.795 -1.925 6.465 -3.625 6.125 C-4.25 4.25 -4.25 4.25 -4.625 2.125 C-2.625 0.125 -2.625 0.125 0 0 Z " fill="#2A292A" transform="translate(390.625,205.875)"/>
<path d="M0 0 C0.99 0.33 1.98 0.66 3 1 C3 1.99 3 2.98 3 4 C2.34 4 1.68 4 1 4 C0.67 5.32 0.34 6.64 0 8 C-0.66 6.68 -1.32 5.36 -2 4 C-2.66 4.99 -3.32 5.98 -4 7 C-3.6875 4.625 -3.6875 4.625 -3 2 C-2.01 1.34 -1.02 0.68 0 0 Z " fill="#554B40" transform="translate(352,206)"/>
<path d="M0 0 C0.33 0 0.66 0 1 0 C1.33 2.64 1.66 5.28 2 8 C2.99 8 3.98 8 5 8 C4.34 8.66 3.68 9.32 3 10 C3 10.99 3 11.98 3 13 C2.01 13 1.02 13 0 13 C0 8.71 0 4.42 0 0 Z " fill="#726D69" transform="translate(384,213)"/>
<path d="M0 0 C2.64 0 5.28 0 8 0 C8 0.99 8 1.98 8 3 C7.01 2.67 6.02 2.34 5 2 C4.67 2.99 4.34 3.98 4 5 C2 3.625 2 3.625 0 2 C0 1.34 0 0.68 0 0 Z " fill="#4B4949" transform="translate(399,209)"/>
<path d="M0 0 C0.99 0 1.98 0 3 0 C2.34 3.3 1.68 6.6 1 10 C0.34 9.67 -0.32 9.34 -1 9 C-1.125 2.25 -1.125 2.25 0 0 Z " fill="#1C0D07" transform="translate(388,227)"/>
<path d="M0 0 C0.309375 0.639375 0.61875 1.27875 0.9375 1.9375 C1.8345163 3.93610821 1.8345163 3.93610821 3 5 C3.04063832 6.66617115 3.042721 8.33388095 3 10 C2.01 9.67 1.02 9.34 0 9 C-1.36623674 6.26752652 -1.128426 4.01801098 -1 1 C-0.67 0.67 -0.34 0.34 0 0 Z " fill="#161210" transform="translate(350,209)"/>
<path d="M0 0 C0.33 0 0.66 0 1 0 C1.3125 3.25 1.3125 3.25 1 7 C-1.375 9.3125 -1.375 9.3125 -4 11 C-4.66 11.66 -5.32 12.32 -6 13 C-5.75 10.625 -5.75 10.625 -5 8 C-4.34 7.690625 -3.68 7.38125 -3 7.0625 C-2.34 6.711875 -1.68 6.36125 -1 6 C-0.18415432 2.94091587 -0.18415432 2.94091587 0 0 Z " fill="#777777" transform="translate(365,237)"/>
<path d="M0 0 C0.99 0.33 1.98 0.66 3 1 C2.67 1.66 2.34 2.32 2 3 C1.34 3 0.68 3 0 3 C-1.37310707 4.29233607 -2.71034824 5.62437146 -4 7 C-4.66 6.67 -5.32 6.34 -6 6 C-4.02 4.02 -2.04 2.04 0 0 Z " fill="#474645" transform="translate(361,271)"/>
<path d="M0 0 C2.31 0 4.62 0 7 0 C6.01 0.495 6.01 0.495 5 1 C5 1.66 5 2.32 5 3 C5.99 3 6.98 3 8 3 C7.67 3.66 7.34 4.32 7 5 C3.535 3.02 3.535 3.02 0 1 C0 0.67 0 0.34 0 0 Z " fill="#57504D" transform="translate(357,224)"/>
<path d="M0 0 C1.65 0 3.3 0 5 0 C4.67 1.65 4.34 3.3 4 5 C2.68 4.67 1.36 4.34 0 4 C0 2.68 0 1.36 0 0 Z " fill="#4C4C4E" transform="translate(263,268)"/>
<path d="M0 0 C0.99 0 1.98 0 3 0 C2.67 2.97 2.34 5.94 2 9 C1.34 9 0.68 9 0 9 C0 6.03 0 3.06 0 0 Z " fill="#444444" transform="translate(362,260)"/>
<path d="M0 0 C0 1.65 0 3.3 0 5 C-1.65 4.67 -3.3 4.34 -5 4 C-1.125 0 -1.125 0 0 0 Z " fill="#040405" transform="translate(369,256)"/>
<path d="M0 0 C2.64 0 5.28 0 8 0 C7 2 7 2 3.9375 3.125 C2.4834375 3.558125 2.4834375 3.558125 1 4 C0.67 2.68 0.34 1.36 0 0 Z " fill="#524B45" transform="translate(393,224)"/>
<path d="M0 0 C0.99 0.33 1.98 0.66 3 1 C3 1.66 3 2.32 3 3 C1.1875 4.0625 1.1875 4.0625 -1 5 C-1.99 4.67 -2.98 4.34 -4 4 C-2.68 2.68 -1.36 1.36 0 0 Z " fill="#1E0E07" transform="translate(390,219)"/>
</svg>
